<svg width="1116" height="643" viewBox="0 0 1116 643" fill="none" xmlns="http://www.w3.org/2000/svg">
<rect width="1116" height="643" rx="24" fill="#1A1D24"/>
<path d="M45.5938 53.5833C51.5135 53.5833 56.3125 48.7852 56.3125 42.8666C56.3125 36.948 51.5135 32.15 45.5938 32.15C39.674 32.15 34.875 36.948 34.875 42.8666C34.875 48.7852 39.674 53.5833 45.5938 53.5833Z" fill="#702EB2"/>
<path d="M88.4688 53.5833C94.3885 53.5833 99.1875 48.7852 99.1875 42.8666C99.1875 36.948 94.3885 32.15 88.4688 32.15C82.549 32.15 77.75 36.948 77.75 42.8666C77.75 48.7852 82.549 53.5833 88.4688 53.5833Z" fill="#20242D"/>
<path d="M131.344 53.5833C137.264 53.5833 142.062 48.7852 142.062 42.8666C142.062 36.948 137.264 32.15 131.344 32.15C125.424 32.15 120.625 36.948 120.625 42.8666C120.625 48.7852 125.424 53.5833 131.344 53.5833Z" fill="#20242D"/>
<rect x="163.438" y="32" width="914" height="22" rx="11" fill="#20242D"/>
<rect x="34" y="98" width="1048" height="508" rx="18" fill="#20242D"/>
<rect x="64" y="129" width="988" height="128" rx="16" fill="#252933"/>
<rect x="64" y="290" width="988" height="128" rx="16" fill="#252933"/>
<rect x="64" y="450" width="988" height="128" rx="16" fill="#252933"/>
</svg>
