<svg width="768" height="328" viewBox="0 0 768 328" fill="none" xmlns="http://www.w3.org/2000/svg">
<g clip-path="url(#clip0_353_950)">
<path d="M384.062 223.235L383 222.17L381.938 223.235L281.358 324.104C281.355 324.107 281.351 324.111 281.347 324.115C279.762 325.63 277.726 326.5 275.583 326.5H194.619C190.161 326.5 186.5 322.834 186.5 318.353V306.294C186.5 304.117 187.386 302.006 188.868 300.52L484.642 3.8962C484.646 3.89242 484.65 3.88865 484.653 3.88488C486.238 2.36972 488.274 1.5 490.417 1.5H571.381C575.839 1.5 579.5 5.16555 579.5 9.64706V21.7059C579.5 23.8828 578.614 25.9936 577.132 27.4801L442.059 162.941L441.003 164L442.059 165.059L577.109 300.496C577.113 300.5 577.117 300.504 577.12 300.508C578.631 302.098 579.5 304.141 579.5 306.294V318.353C579.5 322.834 575.839 326.5 571.381 326.5H490.417C488.241 326.5 486.221 325.687 484.665 324.127L384.062 223.235Z" stroke="white" stroke-width="3"/>
<path d="M260.212 99.0291L188.868 27.4801C187.386 25.9936 186.5 23.8828 186.5 21.7059V9.64706C186.5 5.16555 190.161 1.5 194.619 1.5H275.583C277.75 1.5 279.853 2.38657 281.335 3.87286L323.019 45.6768C326.203 48.8698 326.203 54.0322 323.019 57.2252L281.347 99.0169C279.762 100.532 277.726 101.402 275.583 101.402H265.964C263.787 101.402 261.768 100.589 260.212 99.0291Z" stroke="white" stroke-width="3"/>
</g>
<g filter="url(#filter0_f_353_950)">
<path d="M16.2908 192V125.76H48.5468C59.2988 125.76 64.6748 131.136 64.6748 141.888V154.752C64.6748 165.504 59.2988 170.88 48.5468 170.88H30.1148V192H16.2908ZM30.1148 158.4H47.9708C49.8908 158.4 50.8508 157.44 50.8508 155.52V141.12C50.8508 139.2 49.8908 138.24 47.9708 138.24H30.1148V158.4ZM135.11 192V125.76H148.934V179.52H177.542V192H135.11ZM244.727 175.872V125.76H258.551V176.64C258.551 178.56 259.511 179.52 261.431 179.52H280.247C282.167 179.52 283.127 178.56 283.127 176.64V125.76H296.951V175.872C296.951 186.624 291.575 192 280.823 192H260.855C250.103 192 244.727 186.624 244.727 175.872ZM368.787 175.872V141.888C368.787 131.136 374.163 125.76 384.915 125.76H412.659L419.091 130.752V138.24H385.491C383.571 138.24 382.611 139.2 382.611 141.12V176.64C382.611 178.56 383.571 179.52 385.491 179.52H407.187V164.16H394.515V151.68H421.011V192H384.915C374.163 192 368.787 186.624 368.787 175.872ZM492.41 192V125.76H506.234V192H492.41ZM579.541 192V125.76H594.517L620.821 169.248V125.76H634.645V192H619.669L593.365 148.512V192H579.541ZM705.136 187.008V179.52H734.896C736.816 179.52 737.776 178.56 737.776 176.64V169.728C737.776 167.872 736.976 166.816 735.376 166.56L716.656 162.72C708.976 161.184 705.136 156.032 705.136 147.264V141.888C705.136 131.136 710.512 125.76 721.264 125.76H743.248L749.68 130.752V138.24H721.84C719.92 138.24 718.96 139.2 718.96 141.12V147.36C718.96 149.152 719.76 150.208 721.36 150.528L740.08 154.272C747.76 155.808 751.6 160.96 751.6 169.728V175.872C751.6 186.624 746.224 192 735.472 192H711.568L705.136 187.008Z" fill="url(#paint0_linear_353_950)"/>
</g>
<path d="M16.2908 192V125.76H48.5468C59.2988 125.76 64.6748 131.136 64.6748 141.888V154.752C64.6748 165.504 59.2988 170.88 48.5468 170.88H30.1148V192H16.2908ZM30.1148 158.4H47.9708C49.8908 158.4 50.8508 157.44 50.8508 155.52V141.12C50.8508 139.2 49.8908 138.24 47.9708 138.24H30.1148V158.4ZM135.11 192V125.76H148.934V179.52H177.542V192H135.11ZM244.727 175.872V125.76H258.551V176.64C258.551 178.56 259.511 179.52 261.431 179.52H280.247C282.167 179.52 283.127 178.56 283.127 176.64V125.76H296.951V175.872C296.951 186.624 291.575 192 280.823 192H260.855C250.103 192 244.727 186.624 244.727 175.872ZM368.787 175.872V141.888C368.787 131.136 374.163 125.76 384.915 125.76H412.659L419.091 130.752V138.24H385.491C383.571 138.24 382.611 139.2 382.611 141.12V176.64C382.611 178.56 383.571 179.52 385.491 179.52H407.187V164.16H394.515V151.68H421.011V192H384.915C374.163 192 368.787 186.624 368.787 175.872ZM492.41 192V125.76H506.234V192H492.41ZM579.541 192V125.76H594.517L620.821 169.248V125.76H634.645V192H619.669L593.365 148.512V192H579.541ZM705.136 187.008V179.52H734.896C736.816 179.52 737.776 178.56 737.776 176.64V169.728C737.776 167.872 736.976 166.816 735.376 166.56L716.656 162.72C708.976 161.184 705.136 156.032 705.136 147.264V141.888C705.136 131.136 710.512 125.76 721.264 125.76H743.248L749.68 130.752V138.24H721.84C719.92 138.24 718.96 139.2 718.96 141.12V147.36C718.96 149.152 719.76 150.208 721.36 150.528L740.08 154.272C747.76 155.808 751.6 160.96 751.6 169.728V175.872C751.6 186.624 746.224 192 735.472 192H711.568L705.136 187.008Z" fill="white"/>
<defs>
<filter id="filter0_f_353_950" x="0.290771" y="109.76" width="767.309" height="98.2402" filterUnits="userSpaceOnUse" color-interpolation-filters="sRGB">
<feFlood flood-opacity="0" result="BackgroundImageFix"/>
<feBlend mode="normal" in="SourceGraphic" in2="BackgroundImageFix" result="shape"/>
<feGaussianBlur stdDeviation="8" result="effect1_foregroundBlur_353_950"/>
</filter>
<linearGradient id="paint0_linear_353_950" x1="8" y1="164" x2="757" y2="164" gradientUnits="userSpaceOnUse">
<stop stop-color="#3BACEF"/>
<stop offset="1" stop-color="#EB81F4"/>
</linearGradient>
<clipPath id="clip0_353_950">
<rect width="396" height="328" fill="white" transform="translate(185)"/>
</clipPath>
</defs>
</svg>
