<svg width="472" height="390" viewBox="0 0 472 390" fill="none" xmlns="http://www.w3.org/2000/svg">
<path d="M237.061 265.631L236 264.569L234.939 265.631L115.052 385.571C115.048 385.574 115.044 385.578 115.041 385.582C113.102 387.432 110.604 388.5 107.968 388.5H11.4656C5.98856 388.5 1.5 384.01 1.5 378.529V364.191C1.5 361.529 2.58478 358.948 4.40502 357.127L356.948 4.42933C356.952 4.42572 356.956 4.42212 356.959 4.41853C358.898 2.56836 361.396 1.5 364.032 1.5H460.534C466.011 1.5 470.5 5.98957 470.5 11.4706V25.8088C470.5 28.4708 469.415 31.0524 467.595 32.8734L306.599 193.94L305.539 195L306.599 196.06L467.572 357.103C467.575 357.107 467.579 357.11 467.583 357.114C469.432 359.054 470.5 361.553 470.5 364.191V378.529C470.5 384.01 466.011 388.5 460.534 388.5H364.032C361.363 388.5 358.881 387.504 356.972 385.594L237.061 265.631Z" stroke="white" stroke-opacity="0.25" stroke-width="3"/>
<path d="M89.4415 117.947L4.40502 32.8734C2.58478 31.0524 1.5 28.4708 1.5 25.8088V11.4706C1.5 5.98958 5.98856 1.5 11.4656 1.5H107.968C110.628 1.5 113.208 2.585 115.028 4.40602L164.712 54.1119C168.618 58.0188 168.618 64.3341 164.712 68.241L115.04 117.935C113.102 119.785 110.604 120.853 107.968 120.853H96.502C93.8323 120.853 91.3506 119.857 89.4415 117.947Z" stroke="white" stroke-opacity="0.25" stroke-width="3"/>
</svg>
