<svg width="24" height="42" viewBox="0 0 24 42" fill="none" xmlns="http://www.w3.org/2000/svg">
<path d="M13.5 2C13.5 1.17157 12.8284 0.5 12 0.5C11.1716 0.5 10.5 1.17157 10.5 2L13.5 2ZM10.9393 41.5607C11.5251 42.1464 12.4749 42.1464 13.0607 41.5607L22.6066 32.0147C23.1924 31.4289 23.1924 30.4792 22.6066 29.8934C22.0208 29.3076 21.0711 29.3076 20.4853 29.8934L12 38.3787L3.51472 29.8934C2.92893 29.3076 1.97919 29.3076 1.3934 29.8934C0.807612 30.4792 0.807612 31.4289 1.3934 32.0147L10.9393 41.5607ZM10.5 2L10.5 40.5L13.5 40.5L13.5 2L10.5 2Z" fill="#A8ADB9"/>
</svg>
