<svg width="2560" height="97" viewBox="0 0 2560 97" fill="none" xmlns="http://www.w3.org/2000/svg">
<g clip-path="url(#clip0_160_17)">
<path opacity="0.25" d="M2559.82 24.6117L2499.03 25.562C2437.96 26.5141 2316.37 28.4148 2194.5 27.0755C2072.62 25.7362 1950.98 21.1533 1829.09 17.977C1707.2 14.9087 1585.59 13.1354 1463.18 13.0964C1341.05 13.0556 1218.39 14.5313 1096.29 19.5692C973.917 24.501 852.371 32.8852 730.525 36.4085C608.68 39.9319 487.068 38.5908 365.181 35.9548C243.294 33.4268 121.665 29.4923 60.5843 27.6349L-0.230284 25.6676L0.309011 105.631L61.1076 105.221C122.173 104.81 243.77 103.99 365.634 103.168C487.498 102.346 609.095 101.526 730.959 100.704C852.823 99.8819 974.42 99.0619 1096.82 98.2364C1218.95 97.4127 1341.61 96.5854 1463.74 95.7618C1586.14 94.9363 1707.74 94.1162 1829.6 93.2943C1951.46 92.4724 2073.06 91.6524 2194.93 90.8305C2316.79 90.0086 2438.39 89.1885 2499.45 88.7767L2560.25 88.3666L2559.82 24.6117Z" fill="#252933"/>
<path d="M2560 40L2499.2 40.8867C2438.13 41.6467 2316.53 43.42 2194.67 44.8133C2072.8 46.3333 1951.2 47.6 1829.33 50.5133C1707.47 53.5533 1585.87 58.1133 1463.47 57.3533C1341.33 56.4667 1218.67 50.1333 1096.53 47.98C974.133 45.9533 852.533 47.98 730.667 47.8533C608.8 47.6 487.2 45.0667 365.333 44.6867C243.467 44.18 121.867 45.9533 60.7999 46.7133L-7.62939e-05 47.6V97H60.7999C121.867 97 243.467 97 365.333 97C487.2 97 608.8 97 730.667 97C852.533 97 974.133 97 1096.53 97C1218.67 97 1341.33 97 1463.47 97C1585.87 97 1707.47 97 1829.33 97C1951.2 97 2072.8 97 2194.67 97C2316.53 97 2438.13 97 2499.2 97H2560V40Z" fill="#252933"/>
</g>
<defs>
<clipPath id="clip0_160_17">
<rect width="2560" height="97" fill="white" transform="matrix(-1 0 0 1 2560 0)"/>
</clipPath>
</defs>
</svg>
