<svg width="2560" height="45" viewBox="0 0 2560 45" fill="none" xmlns="http://www.w3.org/2000/svg">
<path d="M0 4.62959L24.8 5.74324C49.8667 6.99611 99.4667 9.22348 149.867 8.38823C200 7.41377 250.667 3.23752 300.8 3.51594C351.2 3.65515 400.8 8.38823 451.2 11.1724C501.333 13.9566 552 14.7918 602.133 13.9566C652.533 12.9821 702.133 10.1979 752.533 8.80584C802.667 7.41376 853.333 7.41374 903.467 5.74324C953.867 4.21195 1003.47 0.870948 1053.87 1.56699C1104 2.26303 1154.67 6.99615 1204.8 6.30011C1255.2 5.60406 1304.8 -0.521101 1355.2 0.0357319C1405.33 0.453357 1456 7.41377 1506.13 11.1724C1556.53 14.7918 1606.13 15.3486 1656.53 13.9566C1706.67 12.5645 1757.33 9.22345 1807.47 8.5274C1857.87 7.83136 1907.47 9.78028 1957.87 8.5274C2008 7.41374 2058.67 3.23751 2108.8 2.54146C2159.2 1.84542 2208.8 4.62957 2259.2 6.43928C2309.33 8.3882 2360 9.22346 2410.13 8.80584C2460.53 8.38821 2510.13 6.43931 2535.2 5.60406L2560 4.62959V45H2535.2C2510.13 45 2460.53 45 2410.13 45C2360 45 2309.33 45 2259.2 45C2208.8 45 2159.2 45 2108.8 45C2058.67 45 2008 45 1957.87 45C1907.47 45 1857.87 45 1807.47 45C1757.33 45 1706.67 45 1656.53 45C1606.13 45 1556.53 45 1506.13 45C1456 45 1405.33 45 1355.2 45C1304.8 45 1255.2 45 1204.8 45C1154.67 45 1104 45 1053.87 45C1003.47 45 953.867 45 903.467 45C853.333 45 802.667 45 752.533 45C702.133 45 652.533 45 602.133 45C552 45 501.333 45 451.2 45C400.8 45 351.2 45 300.8 45C250.667 45 200 45 149.867 45C99.4667 45 49.8667 45 24.8 45H0V4.62959Z" fill="#252933"/>
</svg>
