<svg width="2560" height="97" viewBox="0 0 2560 97" fill="none" xmlns="http://www.w3.org/2000/svg">
<path d="M0 22.4895L60.8 23.1209C121.867 23.7524 243.467 25.0153 365.333 22.4895C487.2 19.9637 608.8 13.6492 730.667 8.97655C852.533 4.43014 974.133 1.39922 1096.53 0.388909C1218.67 -0.621403 1341.33 0.136346 1463.47 5.06162C1585.87 9.8606 1707.47 18.7008 1829.33 21.858C1951.2 25.0153 2072.8 22.4895 2194.67 18.4482C2316.53 14.5333 2438.13 8.97658 2499.2 6.32451L2560 3.54613V97H2499.2C2438.13 97 2316.53 97 2194.67 97C2072.8 97 1951.2 97 1829.33 97C1707.47 97 1585.87 97 1463.47 97C1341.33 97 1218.67 97 1096.53 97C974.133 97 852.533 97 730.667 97C608.8 97 487.2 97 365.333 97C243.467 97 121.867 97 60.8 97H0V22.4895Z" fill="#252933"/>
<path d="M0 40L60.8 40.8867C121.867 41.6467 243.467 43.42 365.333 44.8133C487.2 46.3333 608.8 47.6 730.667 50.5133C852.533 53.5533 974.133 58.1133 1096.53 57.3533C1218.67 56.4667 1341.33 50.1333 1463.47 47.98C1585.87 45.9533 1707.47 47.98 1829.33 47.8533C1951.2 47.6 2072.8 45.0667 2194.67 44.6867C2316.53 44.18 2438.13 45.9533 2499.2 46.7133L2560 47.6V97H2499.2C2438.13 97 2316.53 97 2194.67 97C2072.8 97 1951.2 97 1829.33 97C1707.47 97 1585.87 97 1463.47 97C1341.33 97 1218.67 97 1096.53 97C974.133 97 852.533 97 730.667 97C608.8 97 487.2 97 365.333 97C243.467 97 121.867 97 60.8 97H0V40Z" fill="#A8ADB9"/>
</svg>
